<!DOCTYPE svg PUBLIC "-//W3C//DTD SVG 1.1//EN" "http://www.w3.org/Graphics/SVG/1.1/DTD/svg11.dtd">
<!-- Uploaded to: SVG Repo, www.svgrepo.com, Transformed by: SVG Repo Mixer Tools -->
<svg width="800px" height="800px" viewBox="0 0 1024 1024" class="icon" version="1.1" xmlns="http://www.w3.org/2000/svg" fill="#858080" stroke="#858080">
<g id="SVGRepo_bgCarrier" stroke-width="0"/>
<g id="SVGRepo_tracerCarrier" stroke-linecap="round" stroke-linejoin="round"/>
<g id="SVGRepo_iconCarrier">
<path d="M769.838898 302.120914s-65.917737 0.457677-104.387157 0.390101l0.066553-0.58771c-52.15979-25.037068-142.984562-54.179916-186.345081-77.784569-35.729502-79.477051-91.148319-130.789064-153.350377-130.789063-107.515126 0-195.014318 152.699186-195.014319 340.475659s87.499192 340.475659 195.014319 340.475658c62.265538 0 117.750908-51.44307 153.415905-131.053226 42.24858-22.102613 105.428448-42.966324 154.98245-63.309901v-0.323548c-32.928152 43.487481-14.411186 73.80575-14.411186 73.80575 3.522166 7.757979 8.542275 14.6047 14.998896 19.82242l-1.435487 5.865839c-22.232646 92.065721-44.205225 175.586094-15.78012 221.814517 9.651143 15.777049 24.645944 24.970515 43.227414 26.732622 11.736797 1.107844 34.688211-1.107844 53.075144-20.280097 53.268658-55.808917 85.870191-251.477499 96.626106-356.382741 47.727391-17.605708 82.154511-64.615355 82.15451-120.558402 0-70.872318-55.030765-128.313309-122.83757-128.313309z" fill="#d6db6a27323A"/>
<path d="M433.141376 647.944326c-29.272881 55.225303-67.349129 85.606028-107.31854 85.606028-85.022413 0-154.19713-134.441263-154.19713-299.726046s69.17574-299.726047 154.19713-299.726047c85.022413 0 154.198154 134.441263 154.198154 299.726047 0 80.980114-16.624826 157.002576-46.879614 214.120018z" fill="#d6db6aF4CE73"/>
<path d="M795.266066 509.71776l-25.688259 9.521109-2.804422 27.25378c-13.496856 131.313293-47.727391 291.770458-84.69477 330.434415-7.304398 7.627946-16.170221 7.043307-17.149055 6.913274-4.823524-0.457677-7.434431-1.956645-9.844658-5.998944-17.669189-28.689267 1.432416-107.515126 18.320381-176.954005 0 0 2.737869-11.410178 2.804422-11.670245l7.757979-32.8616-21.581455-17.409122c-2.280193-1.825588-4.69349-6.062425-4.10578-12.321436 0.58771-6.259011 4.890076-8.672309 7.691426-11.540211 29.537044-30.318268 9.453533-92.716912-30.054106-83.523446-0.133105 0.066553-116.776169 45.837298-135.423168 53.595277v-0.781224c12.909146-45.447198 20.343578-96.432592 20.343577-150.549027 0-54.049882-7.434431-105.038348-20.343577-150.549026v-0.521158c19.625834 8.279137 156.808037 63.961092 156.808037 63.961093l112.53626-0.651191c20.667125 0 40.229478 8.539204 55.027693 24.059257 15.322444 15.973635 23.798167 37.425056 23.798167 60.308893 0 35.664998-21.451421 67.548787-53.398692 79.283537z" fill="#d6db6a"/>
<path d="M260.687347 434.021918c0 62.459053 51.573104 100.668405 153.285872 113.641032 8.412242 1.045387 16.170221-4.496904 17.866799-12.779113 6.846721-32.665014 10.302334-66.567904 10.302334-100.731886 0-34.167053-3.455613-68.069944-10.302334-100.802534-1.695554-8.215656-9.453533-13.756923-17.866799-12.71256-101.713792 12.91017-153.285872 51.05297-153.285872 113.385061z" fill="#d6db6a27323A"/>
<path d="M401.845297 355.977283c4.369943 25.620682 7.955589 51.636585 7.955589 78.175692 0 26.536036-3.585646 52.550914-7.955589 78.175692-72.045691-12.127922-108.817508-37.361576-108.817508-78.305726 0-40.817188 36.771818-65.98429 108.817508-78.045658z" fill="#d6db6aFFFFFF"/>
</g>
</svg>