<!DOCTYPE svg PUBLIC "-//W3C//DTD SVG 1.1//EN" "http://www.w3.org/Graphics/SVG/1.1/DTD/svg11.dtd">
<!-- Uploaded to: SVG Repo, www.svgrepo.com, Transformed by: SVG Repo Mixer Tools -->
<svg width="800px" height="800px" viewBox="0 0 1024 1024" enable-background="new 0 0 1024 1024" id="wallet" version="1.1" xml:space="preserve" xmlns="http://www.w3.org/2000/svg" xmlns:xlink="http://www.w3.org/1999/xlink" fill="#000000">
<g id="SVGRepo_bgCarrier" stroke-width="0"/>
<g id="SVGRepo_tracerCarrier" stroke-linecap="round" stroke-linejoin="round"/>
<g id="SVGRepo_iconCarrier"> <g> <g id="wallet-label"> <rect fill="#d4db6a" height="1024" width="1024"/> </g> <g id="wallet-wallet"> <g> <path d="M768,614.4004H665.5996c-16.9394,0-30.7197-13.7803-30.7197-30.7207v-61.4395 c0-16.9404,13.7803-30.7207,30.7197-30.7207H768c16.9395,0,30.7197,13.7803,30.7197,30.7207v61.4395 C798.7197,600.6201,784.9395,614.4004,768,614.4004L768,614.4004z M665.5996,512c-5.6445,0-10.2402,4.5898-10.2402,10.2402 v61.4395c0,5.6504,4.5957,10.2402,10.2402,10.2402H768c5.6445,0,10.2402-4.5898,10.2402-10.2402v-61.4395 C778.2402,516.5898,773.6445,512,768,512H665.5996L665.5996,512z" fill="#d4db6aFFFFFF"/> </g> <g> <path d="M696.3203,573.4395c-11.2949,0-20.4805-9.1895-20.4805-20.4795c0-11.2901,9.1856-20.4795,20.4805-20.4795 c11.2949,0,20.4795,9.1894,20.4795,20.4795C716.7998,564.25,707.6152,573.4395,696.3203,573.4395L696.3203,573.4395z" fill="#d4db6aFFFFFF"/> </g> <g> <path d="M727.04,778.2402H276.48c-28.23,0-51.1997-22.9706-51.1997-51.2002V296.96 c0-5.6602,4.5849-10.2403,10.2397-10.2403s10.2398,4.5801,10.2398,10.2403c0,16.9404,13.7802,30.7202,30.7202,30.7202h450.56 c28.2295,0,51.2002,22.9702,51.2002,51.1997v122.8799C778.2402,507.4199,773.6553,512,768,512H665.5996 c-5.6445,0-10.2402,4.5898-10.2402,10.2402v61.4395c0,5.6504,4.5957,10.2402,10.2402,10.2402H768 c5.6553,0,10.2402,4.5801,10.2402,10.2403V727.04C778.2402,755.2695,755.2695,778.2402,727.04,778.2402L727.04,778.2402z M245.7598,337.9004V727.04c0,16.9406,13.7802,30.7198,30.7202,30.7198h450.56c16.9405,0,30.7198-13.7792,30.7198-30.7198 V614.4004h-92.1602c-16.9394,0-30.7197-13.7803-30.7197-30.7207v-61.4395c0-16.9404,13.7803-30.7207,30.7197-30.7207h92.1602 V378.8799c0-16.94-13.7793-30.7197-30.7198-30.7197H276.48C264.9648,348.1602,254.3252,344.3398,245.7598,337.9004 L245.7598,337.9004z" fill="#d4db6aFFFFFF"/> </g> <g> <g> <g> <line fill="none" x1="727.04" x2="727.04" y1="460.7998" y2="460.7998"/> </g> <g> <path d="M727.04,430.0801c-5.6347,0-10.2402-4.6104-10.2402-10.2403c0-5.6298,4.6055-10.2397,10.2402-10.2397 c5.6299,0,10.2403,4.6099,10.2403,10.2397C737.2803,425.4697,732.6699,430.0801,727.04,430.0801L727.04,430.0801z" fill="#d4db6aFFFFFF"/> </g> <g> <line fill="none" x1="727.04" x2="727.04" y1="378.8799" y2="378.8799"/> </g> <g> <path d="M686.0801,389.1201c-5.6348,0-10.2403-4.6103-10.2403-10.2402c0-5.6299,4.6055-10.2398,10.2403-10.2398 c5.6299,0,10.2402,4.6099,10.2402,10.2398C696.3203,384.5098,691.71,389.1201,686.0801,389.1201L686.0801,389.1201z M645.1201,389.1201c-5.6357,0-10.2402-4.6103-10.2402-10.2402c0-5.6299,4.6045-10.2398,10.2402-10.2398 c5.6299,0,10.2393,4.6099,10.2393,10.2398C655.3594,384.5098,650.75,389.1201,645.1201,389.1201L645.1201,389.1201z M604.1602,389.1201c-5.6348,0-10.2403-4.6103-10.2403-10.2402c0-5.6299,4.6055-10.2398,10.2403-10.2398 c5.6298,0,10.2402,4.6099,10.2402,10.2398C614.4004,384.5098,609.79,389.1201,604.1602,389.1201L604.1602,389.1201z M563.2002,389.1201c-5.6353,0-10.2402-4.6103-10.2402-10.2402c0-5.6299,4.6049-10.2398,10.2402-10.2398 c5.6299,0,10.2397,4.6099,10.2397,10.2398C573.4399,384.5098,568.8301,389.1201,563.2002,389.1201L563.2002,389.1201z M522.2402,389.1201c-5.6352,0-10.2402-4.6103-10.2402-10.2402c0-5.6299,4.605-10.2398,10.2402-10.2398 c5.6299,0,10.2398,4.6099,10.2398,10.2398C532.48,384.5098,527.8701,389.1201,522.2402,389.1201L522.2402,389.1201z M481.2803,389.1201c-5.6353,0-10.2403-4.6103-10.2403-10.2402c0-5.6299,4.605-10.2398,10.2403-10.2398 c5.6299,0,10.2397,4.6099,10.2397,10.2398C491.52,384.5098,486.9102,389.1201,481.2803,389.1201L481.2803,389.1201z M440.3198,389.1201c-5.6347,0-10.2397-4.6103-10.2397-10.2402c0-5.6299,4.605-10.2398,10.2397-10.2398 c5.6304,0,10.2403,4.6099,10.2403,10.2398C450.5601,384.5098,445.9502,389.1201,440.3198,389.1201L440.3198,389.1201z M399.3599,389.1201c-5.6353,0-10.2398-4.6103-10.2398-10.2402c0-5.6299,4.6045-10.2398,10.2398-10.2398 c5.6303,0,10.2397,4.6099,10.2397,10.2398C409.5996,384.5098,404.9902,389.1201,399.3599,389.1201L399.3599,389.1201z M358.3999,389.1201c-5.6353,0-10.2397-4.6103-10.2397-10.2402c0-5.6299,4.6044-10.2398,10.2397-10.2398 c5.6304,0,10.2397,4.6099,10.2397,10.2398C368.6396,384.5098,364.0303,389.1201,358.3999,389.1201L358.3999,389.1201z M317.4399,389.1201c-5.6352,0-10.2397-4.6103-10.2397-10.2402c0-5.6299,4.6045-10.2398,10.2397-10.2398 c5.6304,0,10.2398,4.6099,10.2398,10.2398C327.6797,384.5098,323.0703,389.1201,317.4399,389.1201L317.4399,389.1201z" fill="#d4db6aFFFFFF"/> </g> <g> <line fill="none" x1="276.48" x2="276.48" y1="378.8799" y2="378.8799"/> </g> </g> </g> <g> <g> <g> <line fill="none" x1="727.04" x2="727.04" y1="645.1201" y2="645.1201"/> </g> <g> <path d="M727.04,696.3203c-5.6347,0-10.2402-4.6103-10.2402-10.2402c0-5.6299,4.6055-10.2403,10.2402-10.2403 c5.6299,0,10.2403,4.6104,10.2403,10.2403C737.2803,691.71,732.6699,696.3203,727.04,696.3203L727.04,696.3203z" fill="#d4db6aFFFFFF"/> </g> <g> <line fill="none" x1="727.04" x2="727.04" y1="727.04" y2="727.04"/> </g> <g> <path d="M686.0801,737.2803c-5.6348,0-10.2403-4.6104-10.2403-10.2403c0-5.6298,4.6055-10.2402,10.2403-10.2402 c5.6299,0,10.2402,4.6104,10.2402,10.2402C696.3203,732.6699,691.71,737.2803,686.0801,737.2803L686.0801,737.2803z M645.1201,737.2803c-5.6357,0-10.2402-4.6104-10.2402-10.2403c0-5.6298,4.6045-10.2402,10.2402-10.2402 c5.6299,0,10.2393,4.6104,10.2393,10.2402C655.3594,732.6699,650.75,737.2803,645.1201,737.2803L645.1201,737.2803z M604.1602,737.2803c-5.6348,0-10.2403-4.6104-10.2403-10.2403c0-5.6298,4.6055-10.2402,10.2403-10.2402 c5.6298,0,10.2402,4.6104,10.2402,10.2402C614.4004,732.6699,609.79,737.2803,604.1602,737.2803L604.1602,737.2803z M563.2002,737.2803c-5.6353,0-10.2402-4.6104-10.2402-10.2403c0-5.6298,4.6049-10.2402,10.2402-10.2402 c5.6299,0,10.2397,4.6104,10.2397,10.2402C573.4399,732.6699,568.8301,737.2803,563.2002,737.2803L563.2002,737.2803z M522.2402,737.2803c-5.6352,0-10.2402-4.6104-10.2402-10.2403c0-5.6298,4.605-10.2402,10.2402-10.2402 c5.6299,0,10.2398,4.6104,10.2398,10.2402C532.48,732.6699,527.8701,737.2803,522.2402,737.2803L522.2402,737.2803z M481.2803,737.2803c-5.6353,0-10.2403-4.6104-10.2403-10.2403c0-5.6298,4.605-10.2402,10.2403-10.2402 c5.6299,0,10.2397,4.6104,10.2397,10.2402C491.52,732.6699,486.9102,737.2803,481.2803,737.2803L481.2803,737.2803z M440.3198,737.2803c-5.6347,0-10.2397-4.6104-10.2397-10.2403c0-5.6298,4.605-10.2402,10.2397-10.2402 c5.6304,0,10.2403,4.6104,10.2403,10.2402C450.5601,732.6699,445.9502,737.2803,440.3198,737.2803L440.3198,737.2803z M399.3599,737.2803c-5.6353,0-10.2398-4.6104-10.2398-10.2403c0-5.6298,4.6045-10.2402,10.2398-10.2402 c5.6303,0,10.2397,4.6104,10.2397,10.2402C409.5996,732.6699,404.9902,737.2803,399.3599,737.2803L399.3599,737.2803z M358.3999,737.2803c-5.6353,0-10.2397-4.6104-10.2397-10.2403c0-5.6298,4.6044-10.2402,10.2397-10.2402 c5.6304,0,10.2397,4.6104,10.2397,10.2402C368.6396,732.6699,364.0303,737.2803,358.3999,737.2803L358.3999,737.2803z M317.4399,737.2803c-5.6352,0-10.2397-4.6104-10.2397-10.2403c0-5.6298,4.6045-10.2402,10.2397-10.2402 c5.6304,0,10.2398,4.6104,10.2398,10.2402C327.6797,732.6699,323.0703,737.2803,317.4399,737.2803L317.4399,737.2803z" fill="#d4db6aFFFFFF"/> </g> <g> <line fill="none" x1="276.48" x2="276.48" y1="727.04" y2="727.04"/> </g> </g> </g> <g> <path d="M727.04,348.1602H276.48c-28.23,0-51.1997-22.9703-51.1997-51.2002 c0-28.23,22.9697-51.2002,51.1997-51.2002h409.6001c28.2304,0,51.2002,22.9702,51.2002,51.2002v40.9599 C737.2803,343.5801,732.6953,348.1602,727.04,348.1602L727.04,348.1602z M276.48,266.2402 c-16.94,0-30.7202,13.7798-30.7202,30.7198c0,16.9404,13.7802,30.7202,30.7202,30.7202h440.3198V296.96 c0-16.94-13.7803-30.7198-30.7197-30.7198H276.48L276.48,266.2402z" fill="#d4db6aFFFFFF"/> </g> </g> </g> </g>
</svg>